<?xml version="1.0" encoding="UTF-8" standalone="no"?>
<!DOCTYPE svg PUBLIC "-//W3C//DTD SVG 1.0//EN"
 "http://www.w3.org/TR/2001/REC-SVG-20010904/DTD/svg10.dtd" [
 <!ATTLIST svg xmlns:xlink CDATA #FIXED "http://www.w3.org/1999/xlink">
]>
<!-- Generated by Graphviz version 2.20.2 (Tue Mar &#160;2 19:03:41 UTC 2010)
     For user: (wacek) wacek,,, -->
<!-- Title: controllers_diagram Pages: 1 -->
<svg width="694pt" height="730pt"
 viewBox="0.00 0.00 694.00 730.00" xmlns="http://www.w3.org/2000/svg" xmlns:xlink="http://www.w3.org/1999/xlink">
<g id="graph0" class="graph" transform="scale(1 1) rotate(0) translate(4 726)">
<title>controllers_diagram</title>
<polygon style="fill:white;stroke:white;" points="-4,4 -4,-726 690,-726 690,4 -4,4"/>
<!-- _diagram_info -->
<g id="node1" class="node"><title>_diagram_info</title>
<text text-anchor="start" x="48.5" y="-137.8" style="font-family:Times New Roman;font-size:13.00;">Controllers diagram</text>
<text text-anchor="start" x="48.5" y="-120.8" style="font-family:Times New Roman;font-size:13.00;">Date: Dec 26 2010 &#45; 16:00</text>
<text text-anchor="start" x="48.5" y="-103.8" style="font-family:Times New Roman;font-size:13.00;">Migration version: 20101217010058</text>
<text text-anchor="start" x="48.5" y="-86.8" style="font-family:Times New Roman;font-size:13.00;">Generated by RailRoady 0.11.2</text>
<text text-anchor="start" x="48.5" y="-69.8" style="font-family:Times New Roman;font-size:13.00;">http://railroady.prestonlee.com</text>
</g>
<!-- NotesController -->
<g id="node2" class="node"><title>NotesController</title>
<polyline style="fill:none;stroke:black;" points="33,-520 134,-520 "/>
<path style="fill:none;stroke:black;" d="M134,-520C140,-520 146,-526 146,-532"/>
<polyline style="fill:none;stroke:black;" points="146,-532 146,-709 "/>
<path style="fill:none;stroke:black;" d="M146,-709C146,-715 140,-721 134,-721"/>
<polyline style="fill:none;stroke:black;" points="134,-721 33,-721 "/>
<path style="fill:none;stroke:black;" d="M33,-721C27,-721 21,-715 21,-709"/>
<polyline style="fill:none;stroke:black;" points="21,-709 21,-532 "/>
<path style="fill:none;stroke:black;" d="M21,-532C21,-526 27,-520 33,-520"/>
<text text-anchor="middle" x="83" y="-703.9" style="font-family:Times New Roman;font-size:14.00;">NotesController</text>
<polyline style="fill:none;stroke:black;" points="21,-696 146,-696 "/>
<text text-anchor="start" x="28.5" y="-678.9" style="font-family:Times New Roman;font-size:14.00;">create</text>
<text text-anchor="start" x="28.5" y="-661.9" style="font-family:Times New Roman;font-size:14.00;">destroy</text>
<text text-anchor="start" x="28.5" y="-644.9" style="font-family:Times New Roman;font-size:14.00;">edit</text>
<text text-anchor="start" x="28.5" y="-627.9" style="font-family:Times New Roman;font-size:14.00;">index</text>
<text text-anchor="start" x="28.5" y="-610.9" style="font-family:Times New Roman;font-size:14.00;">new</text>
<text text-anchor="start" x="28.5" y="-593.9" style="font-family:Times New Roman;font-size:14.00;">show</text>
<text text-anchor="start" x="28.5" y="-576.9" style="font-family:Times New Roman;font-size:14.00;">update</text>
<polyline style="fill:none;stroke:black;" points="21,-569 146,-569 "/>
<polyline style="fill:none;stroke:black;" points="21,-545 146,-545 "/>
<text text-anchor="start" x="28.5" y="-527.9" style="font-family:Times New Roman;font-size:14.00;">_layout</text>
</g>
<!-- CommentsController -->
<g id="node3" class="node"><title>CommentsController</title>
<polyline style="fill:none;stroke:black;" points="313,-0 448,-0 "/>
<path style="fill:none;stroke:black;" d="M448,-0C454,-0 460,-6 460,-12"/>
<polyline style="fill:none;stroke:black;" points="460,-12 460,-87 "/>
<path style="fill:none;stroke:black;" d="M460,-87C460,-93 454,-99 448,-99"/>
<polyline style="fill:none;stroke:black;" points="448,-99 313,-99 "/>
<path style="fill:none;stroke:black;" d="M313,-99C307,-99 301,-93 301,-87"/>
<polyline style="fill:none;stroke:black;" points="301,-87 301,-12 "/>
<path style="fill:none;stroke:black;" d="M301,-12C301,-6 307,-0 313,-0"/>
<text text-anchor="middle" x="380" y="-81.9" style="font-family:Times New Roman;font-size:14.00;">CommentsController</text>
<polyline style="fill:none;stroke:black;" points="301,-74 460,-74 "/>
<text text-anchor="start" x="308.5" y="-56.9" style="font-family:Times New Roman;font-size:14.00;">create</text>
<polyline style="fill:none;stroke:black;" points="301,-49 460,-49 "/>
<polyline style="fill:none;stroke:black;" points="301,-25 460,-25 "/>
<text text-anchor="start" x="308.5" y="-7.9" style="font-family:Times New Roman;font-size:14.00;">_layout</text>
</g>
<!-- HomeController -->
<g id="node4" class="node"><title>HomeController</title>
<polyline style="fill:none;stroke:black;" points="553,-160 654,-160 "/>
<path style="fill:none;stroke:black;" d="M654,-160C660,-160 666,-166 666,-172"/>
<polyline style="fill:none;stroke:black;" points="666,-172 666,-247 "/>
<path style="fill:none;stroke:black;" d="M666,-247C666,-253 660,-259 654,-259"/>
<polyline style="fill:none;stroke:black;" points="654,-259 553,-259 "/>
<path style="fill:none;stroke:black;" d="M553,-259C547,-259 541,-253 541,-247"/>
<polyline style="fill:none;stroke:black;" points="541,-247 541,-172 "/>
<path style="fill:none;stroke:black;" d="M541,-172C541,-166 547,-160 553,-160"/>
<text text-anchor="middle" x="603" y="-241.9" style="font-family:Times New Roman;font-size:14.00;">HomeController</text>
<polyline style="fill:none;stroke:black;" points="541,-234 666,-234 "/>
<text text-anchor="start" x="548.5" y="-216.9" style="font-family:Times New Roman;font-size:14.00;">index</text>
<polyline style="fill:none;stroke:black;" points="541,-209 666,-209 "/>
<polyline style="fill:none;stroke:black;" points="541,-185 666,-185 "/>
<text text-anchor="start" x="548.5" y="-167.9" style="font-family:Times New Roman;font-size:14.00;">_layout</text>
</g>
<!-- WordsController -->
<g id="node5" class="node"><title>WordsController</title>
<polyline style="fill:none;stroke:black;" points="413,-120 518,-120 "/>
<path style="fill:none;stroke:black;" d="M518,-120C524,-120 530,-126 530,-132"/>
<polyline style="fill:none;stroke:black;" points="530,-132 530,-343 "/>
<path style="fill:none;stroke:black;" d="M530,-343C530,-349 524,-355 518,-355"/>
<polyline style="fill:none;stroke:black;" points="518,-355 413,-355 "/>
<path style="fill:none;stroke:black;" d="M413,-355C407,-355 401,-349 401,-343"/>
<polyline style="fill:none;stroke:black;" points="401,-343 401,-132 "/>
<path style="fill:none;stroke:black;" d="M401,-132C401,-126 407,-120 413,-120"/>
<text text-anchor="middle" x="465" y="-337.9" style="font-family:Times New Roman;font-size:14.00;">WordsController</text>
<polyline style="fill:none;stroke:black;" points="401,-330 530,-330 "/>
<text text-anchor="start" x="408.5" y="-312.9" style="font-family:Times New Roman;font-size:14.00;">check</text>
<text text-anchor="start" x="408.5" y="-295.9" style="font-family:Times New Roman;font-size:14.00;">create</text>
<text text-anchor="start" x="408.5" y="-278.9" style="font-family:Times New Roman;font-size:14.00;">destroy</text>
<text text-anchor="start" x="408.5" y="-261.9" style="font-family:Times New Roman;font-size:14.00;">edit</text>
<text text-anchor="start" x="408.5" y="-244.9" style="font-family:Times New Roman;font-size:14.00;">index</text>
<text text-anchor="start" x="408.5" y="-227.9" style="font-family:Times New Roman;font-size:14.00;">new</text>
<text text-anchor="start" x="408.5" y="-210.9" style="font-family:Times New Roman;font-size:14.00;">random</text>
<text text-anchor="start" x="408.5" y="-193.9" style="font-family:Times New Roman;font-size:14.00;">show</text>
<text text-anchor="start" x="408.5" y="-176.9" style="font-family:Times New Roman;font-size:14.00;">update</text>
<polyline style="fill:none;stroke:black;" points="401,-169 530,-169 "/>
<polyline style="fill:none;stroke:black;" points="401,-145 530,-145 "/>
<text text-anchor="start" x="408.5" y="-127.9" style="font-family:Times New Roman;font-size:14.00;">_layout</text>
</g>
<!-- ApplicationController -->
<g id="node6" class="node"><title>ApplicationController</title>
<polyline style="fill:none;stroke:black;" points="173,-380 335,-380 "/>
<path style="fill:none;stroke:black;" d="M335,-380C341,-380 347,-386 347,-392"/>
<polyline style="fill:none;stroke:black;" points="347,-392 347,-585 "/>
<path style="fill:none;stroke:black;" d="M347,-585C347,-591 341,-597 335,-597"/>
<polyline style="fill:none;stroke:black;" points="335,-597 173,-597 "/>
<path style="fill:none;stroke:black;" d="M173,-597C167,-597 161,-591 161,-585"/>
<polyline style="fill:none;stroke:black;" points="161,-585 161,-392 "/>
<path style="fill:none;stroke:black;" d="M161,-392C161,-386 167,-380 173,-380"/>
<text text-anchor="middle" x="254" y="-579.9" style="font-family:Times New Roman;font-size:14.00;">ApplicationController</text>
<polyline style="fill:none;stroke:black;" points="161,-572 347,-572 "/>
<polyline style="fill:none;stroke:black;" points="161,-548 347,-548 "/>
<polyline style="fill:none;stroke:black;" points="161,-524 347,-524 "/>
<text text-anchor="start" x="169" y="-507.4" style="font-family:Times New Roman;font-size:14.00;">_layout</text>
<text text-anchor="start" x="169" y="-490.4" style="font-family:Times New Roman;font-size:14.00;">current_user</text>
<text text-anchor="start" x="169" y="-473.4" style="font-family:Times New Roman;font-size:14.00;">current_user_session</text>
<text text-anchor="start" x="169" y="-456.4" style="font-family:Times New Roman;font-size:14.00;">logged_in?</text>
<text text-anchor="start" x="169" y="-439.4" style="font-family:Times New Roman;font-size:14.00;">redirect_back_or_default</text>
<text text-anchor="start" x="169" y="-422.4" style="font-family:Times New Roman;font-size:14.00;">require_no_user</text>
<text text-anchor="start" x="169" y="-405.4" style="font-family:Times New Roman;font-size:14.00;">require_user</text>
<text text-anchor="start" x="169" y="-388.4" style="font-family:Times New Roman;font-size:14.00;">store_location</text>
</g>
<!-- SessionsController -->
<g id="node7" class="node"><title>SessionsController</title>
<polyline style="fill:none;stroke:black;" points="553,-0 673,-0 "/>
<path style="fill:none;stroke:black;" d="M673,-0C679,-0 685,-6 685,-12"/>
<polyline style="fill:none;stroke:black;" points="685,-12 685,-121 "/>
<path style="fill:none;stroke:black;" d="M685,-121C685,-127 679,-133 673,-133"/>
<polyline style="fill:none;stroke:black;" points="673,-133 553,-133 "/>
<path style="fill:none;stroke:black;" d="M553,-133C547,-133 541,-127 541,-121"/>
<polyline style="fill:none;stroke:black;" points="541,-121 541,-12 "/>
<path style="fill:none;stroke:black;" d="M541,-12C541,-6 547,-0 553,-0"/>
<text text-anchor="middle" x="613" y="-115.9" style="font-family:Times New Roman;font-size:14.00;">SessionsController</text>
<polyline style="fill:none;stroke:black;" points="541,-108 685,-108 "/>
<text text-anchor="start" x="549" y="-90.9" style="font-family:Times New Roman;font-size:14.00;">create</text>
<text text-anchor="start" x="549" y="-73.9" style="font-family:Times New Roman;font-size:14.00;">destroy</text>
<text text-anchor="start" x="549" y="-56.9" style="font-family:Times New Roman;font-size:14.00;">new</text>
<polyline style="fill:none;stroke:black;" points="541,-49 685,-49 "/>
<polyline style="fill:none;stroke:black;" points="541,-25 685,-25 "/>
<text text-anchor="start" x="549" y="-7.9" style="font-family:Times New Roman;font-size:14.00;">_layout</text>
</g>
<!-- UserSessionsController -->
<g id="node8" class="node"><title>UserSessionsController</title>
<polyline style="fill:none;stroke:black;" points="153,-181 366,-181 "/>
<path style="fill:none;stroke:black;" d="M366,-181C372,-181 378,-187 378,-193"/>
<polyline style="fill:none;stroke:black;" points="378,-193 378,-353 "/>
<path style="fill:none;stroke:black;" d="M378,-353C378,-359 372,-365 366,-365"/>
<polyline style="fill:none;stroke:black;" points="366,-365 153,-365 "/>
<path style="fill:none;stroke:black;" d="M153,-365C147,-365 141,-359 141,-353"/>
<polyline style="fill:none;stroke:black;" points="141,-353 141,-193 "/>
<path style="fill:none;stroke:black;" d="M141,-193C141,-187 147,-181 153,-181"/>
<text text-anchor="middle" x="259" y="-347.9" style="font-family:Times New Roman;font-size:14.00;">UserSessionsController</text>
<polyline style="fill:none;stroke:black;" points="141,-340 378,-340 "/>
<text text-anchor="start" x="148.5" y="-322.9" style="font-family:Times New Roman;font-size:14.00;">_one_time_conditions_valid_74?</text>
<text text-anchor="start" x="148.5" y="-305.9" style="font-family:Times New Roman;font-size:14.00;">_one_time_conditions_valid_78?</text>
<text text-anchor="start" x="148.5" y="-288.9" style="font-family:Times New Roman;font-size:14.00;">create</text>
<text text-anchor="start" x="148.5" y="-271.9" style="font-family:Times New Roman;font-size:14.00;">destroy</text>
<text text-anchor="start" x="148.5" y="-254.9" style="font-family:Times New Roman;font-size:14.00;">new</text>
<polyline style="fill:none;stroke:black;" points="141,-247 378,-247 "/>
<polyline style="fill:none;stroke:black;" points="141,-223 378,-223 "/>
<text text-anchor="start" x="148.5" y="-206.4" style="font-family:Times New Roman;font-size:14.00;">_layout</text>
<text text-anchor="start" x="148.5" y="-189.4" style="font-family:Times New Roman;font-size:14.00;">_run_process_action_callbacks</text>
</g>
<!-- TasksController -->
<g id="node9" class="node"><title>TasksController</title>
<polyline style="fill:none;stroke:black;" points="13,-281 111,-281 "/>
<path style="fill:none;stroke:black;" d="M111,-281C117,-281 123,-287 123,-293"/>
<polyline style="fill:none;stroke:black;" points="123,-293 123,-487 "/>
<path style="fill:none;stroke:black;" d="M123,-487C123,-493 117,-499 111,-499"/>
<polyline style="fill:none;stroke:black;" points="111,-499 13,-499 "/>
<path style="fill:none;stroke:black;" d="M13,-499C7,-499 1,-493 1,-487"/>
<polyline style="fill:none;stroke:black;" points="1,-487 1,-293 "/>
<path style="fill:none;stroke:black;" d="M1,-293C1,-287 7,-281 13,-281"/>
<text text-anchor="middle" x="62" y="-481.9" style="font-family:Times New Roman;font-size:14.00;">TasksController</text>
<polyline style="fill:none;stroke:black;" points="1,-474 123,-474 "/>
<text text-anchor="start" x="9" y="-457.4" style="font-family:Times New Roman;font-size:14.00;">create</text>
<text text-anchor="start" x="9" y="-440.4" style="font-family:Times New Roman;font-size:14.00;">destroy</text>
<text text-anchor="start" x="9" y="-423.4" style="font-family:Times New Roman;font-size:14.00;">edit</text>
<text text-anchor="start" x="9" y="-406.4" style="font-family:Times New Roman;font-size:14.00;">index</text>
<text text-anchor="start" x="9" y="-389.4" style="font-family:Times New Roman;font-size:14.00;">list</text>
<text text-anchor="start" x="9" y="-372.4" style="font-family:Times New Roman;font-size:14.00;">new</text>
<text text-anchor="start" x="9" y="-355.4" style="font-family:Times New Roman;font-size:14.00;">show</text>
<text text-anchor="start" x="9" y="-338.4" style="font-family:Times New Roman;font-size:14.00;">update</text>
<polyline style="fill:none;stroke:black;" points="1,-330 123,-330 "/>
<polyline style="fill:none;stroke:black;" points="1,-306 123,-306 "/>
<text text-anchor="start" x="9" y="-288.9" style="font-family:Times New Roman;font-size:14.00;">_layout</text>
</g>
<!-- UsersController -->
<g id="node10" class="node"><title>UsersController</title>
<polyline style="fill:none;stroke:black;" points="373,-381 586,-381 "/>
<path style="fill:none;stroke:black;" d="M586,-381C592,-381 598,-387 598,-393"/>
<polyline style="fill:none;stroke:black;" points="598,-393 598,-553 "/>
<path style="fill:none;stroke:black;" d="M598,-553C598,-559 592,-565 586,-565"/>
<polyline style="fill:none;stroke:black;" points="586,-565 373,-565 "/>
<path style="fill:none;stroke:black;" d="M373,-565C367,-565 361,-559 361,-553"/>
<polyline style="fill:none;stroke:black;" points="361,-553 361,-393 "/>
<path style="fill:none;stroke:black;" d="M361,-393C361,-387 367,-381 373,-381"/>
<text text-anchor="middle" x="479" y="-547.9" style="font-family:Times New Roman;font-size:14.00;">UsersController</text>
<polyline style="fill:none;stroke:black;" points="361,-540 598,-540 "/>
<text text-anchor="start" x="368.5" y="-522.9" style="font-family:Times New Roman;font-size:14.00;">_one_time_conditions_valid_82?</text>
<text text-anchor="start" x="368.5" y="-505.9" style="font-family:Times New Roman;font-size:14.00;">create</text>
<text text-anchor="start" x="368.5" y="-488.9" style="font-family:Times New Roman;font-size:14.00;">edit</text>
<text text-anchor="start" x="368.5" y="-471.9" style="font-family:Times New Roman;font-size:14.00;">new</text>
<text text-anchor="start" x="368.5" y="-454.9" style="font-family:Times New Roman;font-size:14.00;">update</text>
<polyline style="fill:none;stroke:black;" points="361,-447 598,-447 "/>
<polyline style="fill:none;stroke:black;" points="361,-423 598,-423 "/>
<text text-anchor="start" x="368.5" y="-406.4" style="font-family:Times New Roman;font-size:14.00;">_layout</text>
<text text-anchor="start" x="368.5" y="-389.4" style="font-family:Times New Roman;font-size:14.00;">_run_process_action_callbacks</text>
</g>
</g>
</svg>
