<?xml version="1.0" encoding="UTF-8" standalone="no"?>
<!DOCTYPE svg PUBLIC "-//W3C//DTD SVG 1.0//EN"
 "http://www.w3.org/TR/2001/REC-SVG-20010904/DTD/svg10.dtd" [
 <!ATTLIST svg xmlns:xlink CDATA #FIXED "http://www.w3.org/1999/xlink">
]>
<!-- Generated by Graphviz version 2.20.2 (Tue Mar &#160;2 19:03:41 UTC 2010)
     For user: (wacek) wacek,,, -->
<!-- Title: models_diagram Pages: 1 -->
<svg width="895pt" height="174pt"
 viewBox="0.00 0.00 895.00 174.00" xmlns="http://www.w3.org/2000/svg" xmlns:xlink="http://www.w3.org/1999/xlink">
<g id="graph0" class="graph" transform="scale(1 1) rotate(0) translate(4 170)">
<title>models_diagram</title>
<polygon style="fill:white;stroke:white;" points="-4,4 -4,-170 891,-170 891,4 -4,4"/>
<!-- _diagram_info -->
<g id="node1" class="node"><title>_diagram_info</title>
<text text-anchor="start" x="7.5" y="-149.8" style="font-family:Times New Roman;font-size:13.00;">Models diagram</text>
<text text-anchor="start" x="7.5" y="-132.8" style="font-family:Times New Roman;font-size:13.00;">Date: Dec 26 2010 &#45; 16:00</text>
<text text-anchor="start" x="7.5" y="-115.8" style="font-family:Times New Roman;font-size:13.00;">Migration version: 20101217010058</text>
<text text-anchor="start" x="7.5" y="-98.8" style="font-family:Times New Roman;font-size:13.00;">Generated by RailRoady 0.11.2</text>
<text text-anchor="start" x="7.5" y="-81.8" style="font-family:Times New Roman;font-size:13.00;">http://railroady.prestonlee.com</text>
</g>
<!-- UserSession -->
<g id="node2" class="node"><title>UserSession</title>
<polygon style="fill:none;stroke:black;" points="442,-36 344,-36 344,-1.77636e-14 442,-3.55271e-15 442,-36"/>
<text text-anchor="middle" x="393" y="-13.9" style="font-family:Times New Roman;font-size:14.00;">UserSession</text>
</g>
<!-- Word -->
<g id="node3" class="node"><title>Word</title>
<ellipse style="fill:none;stroke:black;" cx="575" cy="-119" rx="36.8288" ry="18"/>
<text text-anchor="middle" x="575" y="-114.9" style="font-family:Times New Roman;font-size:14.00;">Word</text>
</g>
<!-- Task -->
<g id="node4" class="node"><title>Task</title>
<ellipse style="fill:none;stroke:black;" cx="662" cy="-119" rx="31.9646" ry="18"/>
<text text-anchor="middle" x="662" y="-114.9" style="font-family:Times New Roman;font-size:14.00;">Task</text>
</g>
<!-- User -->
<g id="node5" class="node"><title>User</title>
<ellipse style="fill:none;stroke:black;" cx="745" cy="-119" rx="32.8565" ry="18"/>
<text text-anchor="middle" x="745" y="-114.9" style="font-family:Times New Roman;font-size:14.00;">User</text>
</g>
<!-- Comment -->
<g id="node6" class="node"><title>Comment</title>
<ellipse style="fill:none;stroke:black;" cx="830" cy="-18" rx="57.1737" ry="18"/>
<text text-anchor="middle" x="830" y="-13.9" style="font-family:Times New Roman;font-size:14.00;">Comment</text>
</g>
<!-- Note -->
<g id="node7" class="node"><title>Note</title>
<ellipse style="fill:none;stroke:black;" cx="830" cy="-119" rx="34.0492" ry="18"/>
<text text-anchor="middle" x="830" y="-114.9" style="font-family:Times New Roman;font-size:14.00;">Note</text>
</g>
<!-- Note&#45;&gt;Comment -->
<g id="edge4" class="edge"><title>Note&#45;&gt;Comment</title>
<path style="fill:none;stroke:black;" d="M830,-93C830,-79 830,-61 830,-46"/>
<ellipse style="fill:none;stroke:black;" cx="830" cy="-97" rx="4" ry="4"/>
<polygon style="fill:black;stroke:black;" points="830,-46 834.5,-36 830,-41 830,-36 830,-36 830,-36 830,-41 825.5,-36 830,-46 830,-46"/>
</g>
<!-- Authlogic::Session::Base -->
<g id="node8" class="node"><title>Authlogic::Session::Base</title>
<ellipse style="fill:none;stroke:black;" cx="393" cy="-119" rx="127.163" ry="18"/>
<text text-anchor="middle" x="393" y="-114.9" style="font-family:Times New Roman;font-size:14.00;">Authlogic::Session::Base</text>
</g>
<!-- Authlogic::Session::Base&#45;&gt;UserSession -->
<g id="edge2" class="edge"><title>Authlogic::Session::Base&#45;&gt;UserSession</title>
<path style="fill:none;stroke:black;" d="M393,-91C393,-74 393,-52 393,-36"/>
<polygon style="fill:none;stroke:black;" points="389.5,-91 393,-101 396.5,-91 389.5,-91"/>
</g>
</g>
</svg>
