<?xml version="1.0" encoding="UTF-8" standalone="no"?>
<!DOCTYPE svg PUBLIC "-//W3C//DTD SVG 1.0//EN"
 "http://www.w3.org/TR/2001/REC-SVG-20010904/DTD/svg10.dtd" [
 <!ATTLIST svg xmlns:xlink CDATA #FIXED "http://www.w3.org/1999/xlink">
]>
<!-- Generated by Graphviz version 2.20.2 (Tue Mar &#160;2 19:03:41 UTC 2010)
     For user: (wacek) wacek,,, -->
<!-- Title: models_diagram Pages: 1 -->
<svg width="1292pt" height="418pt"
 viewBox="0.00 0.00 1292.00 418.00" xmlns="http://www.w3.org/2000/svg" xmlns:xlink="http://www.w3.org/1999/xlink">
<g id="graph0" class="graph" transform="scale(1 1) rotate(0) translate(4 414)">
<title>models_diagram</title>
<polygon style="fill:white;stroke:white;" points="-4,4 -4,-414 1288,-414 1288,4 -4,4"/>
<!-- _diagram_info -->
<g id="node1" class="node"><title>_diagram_info</title>
<text text-anchor="start" x="7.5" y="-304.8" style="font-family:Times New Roman;font-size:13.00;">Models diagram</text>
<text text-anchor="start" x="7.5" y="-287.8" style="font-family:Times New Roman;font-size:13.00;">Date: Dec 26 2010 &#45; 16:00</text>
<text text-anchor="start" x="7.5" y="-270.8" style="font-family:Times New Roman;font-size:13.00;">Migration version: 20101217010058</text>
<text text-anchor="start" x="7.5" y="-253.8" style="font-family:Times New Roman;font-size:13.00;">Generated by RailRoady 0.11.2</text>
<text text-anchor="start" x="7.5" y="-236.8" style="font-family:Times New Roman;font-size:13.00;">http://railroady.prestonlee.com</text>
</g>
<!-- UserSession -->
<g id="node2" class="node"><title>UserSession</title>
<polygon style="fill:none;stroke:black;" points="344,-26 344,-76 443,-76 443,-26 344,-26"/>
<text text-anchor="middle" x="393" y="-58.9" style="font-family:Times New Roman;font-size:14.00;">UserSession</text>
<polyline style="fill:none;stroke:black;" points="344,-51 443,-51 "/>
<text text-anchor="middle" x="393" y="-33.9" style="font-family:Times New Roman;font-size:14.00;"> </text>
</g>
<!-- Word -->
<g id="node3" class="node"><title>Word</title>
<polyline style="fill:none;stroke:black;" points="550,-215 691,-215 "/>
<path style="fill:none;stroke:black;" d="M691,-215C697,-215 703,-221 703,-227"/>
<polyline style="fill:none;stroke:black;" points="703,-227 703,-321 "/>
<path style="fill:none;stroke:black;" d="M703,-321C703,-327 697,-333 691,-333"/>
<polyline style="fill:none;stroke:black;" points="691,-333 550,-333 "/>
<path style="fill:none;stroke:black;" d="M550,-333C544,-333 538,-327 538,-321"/>
<polyline style="fill:none;stroke:black;" points="538,-321 538,-227 "/>
<path style="fill:none;stroke:black;" d="M538,-227C538,-221 544,-215 550,-215"/>
<text text-anchor="middle" x="620" y="-315.9" style="font-family:Times New Roman;font-size:14.00;">Word</text>
<polyline style="fill:none;stroke:black;" points="538,-308 703,-308 "/>
<text text-anchor="start" x="545.5" y="-290.9" style="font-family:Times New Roman;font-size:14.00;">pl :string</text>
<text text-anchor="start" x="545.5" y="-273.9" style="font-family:Times New Roman;font-size:14.00;">en :string</text>
<text text-anchor="start" x="545.5" y="-256.9" style="font-family:Times New Roman;font-size:14.00;">count :integer</text>
<text text-anchor="start" x="545.5" y="-239.9" style="font-family:Times New Roman;font-size:14.00;">created_at :datetime</text>
<text text-anchor="start" x="545.5" y="-222.9" style="font-family:Times New Roman;font-size:14.00;">updated_at :datetime</text>
</g>
<!-- Task -->
<g id="node4" class="node"><title>Task</title>
<polyline style="fill:none;stroke:black;" points="732,-206 873,-206 "/>
<path style="fill:none;stroke:black;" d="M873,-206C879,-206 885,-212 885,-218"/>
<polyline style="fill:none;stroke:black;" points="885,-218 885,-329 "/>
<path style="fill:none;stroke:black;" d="M885,-329C885,-335 879,-341 873,-341"/>
<polyline style="fill:none;stroke:black;" points="873,-341 732,-341 "/>
<path style="fill:none;stroke:black;" d="M732,-341C726,-341 720,-335 720,-329"/>
<polyline style="fill:none;stroke:black;" points="720,-329 720,-218 "/>
<path style="fill:none;stroke:black;" d="M720,-218C720,-212 726,-206 732,-206"/>
<text text-anchor="middle" x="802" y="-323.9" style="font-family:Times New Roman;font-size:14.00;">Task</text>
<polyline style="fill:none;stroke:black;" points="720,-316 885,-316 "/>
<text text-anchor="start" x="727.5" y="-299.4" style="font-family:Times New Roman;font-size:14.00;">name :string</text>
<text text-anchor="start" x="727.5" y="-282.4" style="font-family:Times New Roman;font-size:14.00;">important :boolean</text>
<text text-anchor="start" x="727.5" y="-265.4" style="font-family:Times New Roman;font-size:14.00;">urgent :boolean</text>
<text text-anchor="start" x="727.5" y="-248.4" style="font-family:Times New Roman;font-size:14.00;">done :boolean</text>
<text text-anchor="start" x="727.5" y="-231.4" style="font-family:Times New Roman;font-size:14.00;">created_at :datetime</text>
<text text-anchor="start" x="727.5" y="-214.4" style="font-family:Times New Roman;font-size:14.00;">updated_at :datetime</text>
</g>
<!-- User -->
<g id="node5" class="node"><title>User</title>
<polyline style="fill:none;stroke:black;" points="914,-138 1090,-138 "/>
<path style="fill:none;stroke:black;" d="M1090,-138C1096,-138 1102,-144 1102,-150"/>
<polyline style="fill:none;stroke:black;" points="1102,-150 1102,-397 "/>
<path style="fill:none;stroke:black;" d="M1102,-397C1102,-403 1096,-409 1090,-409"/>
<polyline style="fill:none;stroke:black;" points="1090,-409 914,-409 "/>
<path style="fill:none;stroke:black;" d="M914,-409C908,-409 902,-403 902,-397"/>
<polyline style="fill:none;stroke:black;" points="902,-397 902,-150 "/>
<path style="fill:none;stroke:black;" d="M902,-150C902,-144 908,-138 914,-138"/>
<text text-anchor="middle" x="1002" y="-391.9" style="font-family:Times New Roman;font-size:14.00;">User</text>
<polyline style="fill:none;stroke:black;" points="902,-384 1102,-384 "/>
<text text-anchor="start" x="910" y="-367.4" style="font-family:Times New Roman;font-size:14.00;">login :string</text>
<text text-anchor="start" x="910" y="-350.4" style="font-family:Times New Roman;font-size:14.00;">email :string</text>
<text text-anchor="start" x="910" y="-333.4" style="font-family:Times New Roman;font-size:14.00;">crypted_password :string</text>
<text text-anchor="start" x="910" y="-316.4" style="font-family:Times New Roman;font-size:14.00;">password_salt :string</text>
<text text-anchor="start" x="910" y="-299.4" style="font-family:Times New Roman;font-size:14.00;">persistence_token :string</text>
<text text-anchor="start" x="910" y="-282.4" style="font-family:Times New Roman;font-size:14.00;">description :text</text>
<text text-anchor="start" x="910" y="-265.4" style="font-family:Times New Roman;font-size:14.00;">lang :string</text>
<text text-anchor="start" x="910" y="-248.4" style="font-family:Times New Roman;font-size:14.00;">created_at :datetime</text>
<text text-anchor="start" x="910" y="-231.4" style="font-family:Times New Roman;font-size:14.00;">updated_at :datetime</text>
<text text-anchor="start" x="910" y="-214.4" style="font-family:Times New Roman;font-size:14.00;">last_request_at :datetime</text>
<text text-anchor="start" x="910" y="-197.4" style="font-family:Times New Roman;font-size:14.00;">last_login_at :datetime</text>
<text text-anchor="start" x="910" y="-180.4" style="font-family:Times New Roman;font-size:14.00;">current_login_at :datetime</text>
<text text-anchor="start" x="910" y="-163.4" style="font-family:Times New Roman;font-size:14.00;">last_login_ip :string</text>
<text text-anchor="start" x="910" y="-146.4" style="font-family:Times New Roman;font-size:14.00;">current_login_ip :string</text>
</g>
<!-- Comment -->
<g id="node6" class="node"><title>Comment</title>
<polyline style="fill:none;stroke:black;" points="1132,-0 1273,-0 "/>
<path style="fill:none;stroke:black;" d="M1273,-0C1279,-0 1285,-6 1285,-12"/>
<polyline style="fill:none;stroke:black;" points="1285,-12 1285,-89 "/>
<path style="fill:none;stroke:black;" d="M1285,-89C1285,-95 1279,-101 1273,-101"/>
<polyline style="fill:none;stroke:black;" points="1273,-101 1132,-101 "/>
<path style="fill:none;stroke:black;" d="M1132,-101C1126,-101 1120,-95 1120,-89"/>
<polyline style="fill:none;stroke:black;" points="1120,-89 1120,-12 "/>
<path style="fill:none;stroke:black;" d="M1120,-12C1120,-6 1126,-0 1132,-0"/>
<text text-anchor="middle" x="1202" y="-83.9" style="font-family:Times New Roman;font-size:14.00;">Comment</text>
<polyline style="fill:none;stroke:black;" points="1120,-76 1285,-76 "/>
<text text-anchor="start" x="1127.5" y="-59.4" style="font-family:Times New Roman;font-size:14.00;">commenter :string</text>
<text text-anchor="start" x="1127.5" y="-42.4" style="font-family:Times New Roman;font-size:14.00;">body :text</text>
<text text-anchor="start" x="1127.5" y="-25.4" style="font-family:Times New Roman;font-size:14.00;">created_at :datetime</text>
<text text-anchor="start" x="1127.5" y="-8.4" style="font-family:Times New Roman;font-size:14.00;">updated_at :datetime</text>
</g>
<!-- Note -->
<g id="node7" class="node"><title>Note</title>
<polyline style="fill:none;stroke:black;" points="1132,-206 1273,-206 "/>
<path style="fill:none;stroke:black;" d="M1273,-206C1279,-206 1285,-212 1285,-218"/>
<polyline style="fill:none;stroke:black;" points="1285,-218 1285,-329 "/>
<path style="fill:none;stroke:black;" d="M1285,-329C1285,-335 1279,-341 1273,-341"/>
<polyline style="fill:none;stroke:black;" points="1273,-341 1132,-341 "/>
<path style="fill:none;stroke:black;" d="M1132,-341C1126,-341 1120,-335 1120,-329"/>
<polyline style="fill:none;stroke:black;" points="1120,-329 1120,-218 "/>
<path style="fill:none;stroke:black;" d="M1120,-218C1120,-212 1126,-206 1132,-206"/>
<text text-anchor="middle" x="1202" y="-323.9" style="font-family:Times New Roman;font-size:14.00;">Note</text>
<polyline style="fill:none;stroke:black;" points="1120,-316 1285,-316 "/>
<text text-anchor="start" x="1127.5" y="-299.4" style="font-family:Times New Roman;font-size:14.00;">godziny :string</text>
<text text-anchor="start" x="1127.5" y="-282.4" style="font-family:Times New Roman;font-size:14.00;">plan :text</text>
<text text-anchor="start" x="1127.5" y="-265.4" style="font-family:Times New Roman;font-size:14.00;">realizacja :text</text>
<text text-anchor="start" x="1127.5" y="-248.4" style="font-family:Times New Roman;font-size:14.00;">uwagi :text</text>
<text text-anchor="start" x="1127.5" y="-231.4" style="font-family:Times New Roman;font-size:14.00;">created_at :datetime</text>
<text text-anchor="start" x="1127.5" y="-214.4" style="font-family:Times New Roman;font-size:14.00;">updated_at :datetime</text>
</g>
<!-- Note&#45;&gt;Comment -->
<g id="edge4" class="edge"><title>Note&#45;&gt;Comment</title>
<path style="fill:none;stroke:black;" d="M1202,-198C1202,-170 1202,-138 1202,-111"/>
<ellipse style="fill:none;stroke:black;" cx="1202" cy="-202" rx="4" ry="4"/>
<polygon style="fill:black;stroke:black;" points="1202,-111 1206.5,-101 1202,-106 1202,-101 1202,-101 1202,-101 1202,-106 1197.5,-101 1202,-111 1202,-111"/>
</g>
<!-- Authlogic::Session::Base -->
<g id="node8" class="node"><title>Authlogic::Session::Base</title>
<ellipse style="fill:none;stroke:black;" cx="393" cy="-274" rx="127.163" ry="18"/>
<text text-anchor="middle" x="393" y="-269.9" style="font-family:Times New Roman;font-size:14.00;">Authlogic::Session::Base</text>
</g>
<!-- Authlogic::Session::Base&#45;&gt;UserSession -->
<g id="edge2" class="edge"><title>Authlogic::Session::Base&#45;&gt;UserSession</title>
<path style="fill:none;stroke:black;" d="M393,-246C393,-202 393,-118 393,-76"/>
<polygon style="fill:none;stroke:black;" points="389.5,-246 393,-256 396.5,-246 389.5,-246"/>
</g>
</g>
</svg>
